<?xml version="1.0" encoding="UTF-8"?>
<svg width="256" height="256" viewBox="0 0 256 256" xmlns="http://www.w3.org/2000/svg">
  <defs>
    <linearGradient id="bg" x1="25%" y1="0%" x2="75%" y2="100%">
      <stop offset="0%" stop-color="#fdf7ff"/>
      <stop offset="100%" stop-color="#e2edff"/>
    </linearGradient>
    <radialGradient id="halo" cx="50%" cy="40%" r="65%">
      <stop offset="0%" stop-color="#ffffff" stop-opacity="1"/>
      <stop offset="100%" stop-color="#f0f5ff" stop-opacity="0.2"/>
    </radialGradient>
    <linearGradient id="ring" x1="0%" y1="0%" x2="100%" y2="100%">
      <stop offset="0%" stop-color="#ce9a43"/>
      <stop offset="100%" stop-color="#9b6a21"/>
    </linearGradient>
    <linearGradient id="leaf" x1="0%" y1="0%" x2="100%" y2="100%">
      <stop offset="0%" stop-color="#6fb28e"/>
      <stop offset="100%" stop-color="#3f7f64"/>
    </linearGradient>
    <linearGradient id="stem" x1="0%" y1="0%" x2="100%" y2="100%">
      <stop offset="0%" stop-color="#2f557f"/>
      <stop offset="100%" stop-color="#6f8fb7"/>
    </linearGradient>
    <filter id="shadow" x="-20%" y="-20%" width="140%" height="140%">
      <feDropShadow dx="0" dy="6" stdDeviation="8" flood-color="#2f3a54" flood-opacity="0.25"/>
    </filter>
  </defs>
  <rect width="256" height="256" rx="48" ry="48" fill="url(#bg)"/>
  <g filter="url(#shadow)">
    <circle cx="128" cy="128" r="94" fill="url(#halo)"/>
    <circle cx="128" cy="128" r="78" fill="none" stroke="url(#ring)" stroke-width="6"/>
    <circle cx="128" cy="128" r="60" fill="none" stroke="rgba(47,85,127,0.35)" stroke-dasharray="10 12" stroke-width="4"/>
  </g>
  <g transform="translate(128 128)">
    <path d="M0 -52 C-10 -38 -18 -20 -18 -6 C-18 10 -6 22 0 30 C6 22 18 10 18 -6 C18 -20 10 -38 0 -52" fill="url(#leaf)"/>
    <path d="M0 30 C-8 40 -18 46 -28 47 C-14 60 6 64 0 86 C-4 94 -16 101 -32 102 C-18 118 6 116 0 138 C-4 150 -18 158 -32 160 C-18 176 10 174 22 156 C34 136 22 112 12 98 C24 96 40 90 50 74 C28 72 18 64 12 56 C28 48 36 26 32 8" fill="url(#leaf)" opacity="0.85"/>
    <path d="M0 -56 L0 94" stroke="url(#stem)" stroke-width="8" stroke-linecap="round"/>
    <circle cx="0" cy="0" r="18" fill="rgba(255,255,255,0.92)" stroke="url(#stem)" stroke-width="4"/>
    <text x="0" y="8" text-anchor="middle" font-family="'Cinzel', serif" font-size="22" font-weight="700" fill="url(#stem)">лелю</text>
  </g>
  <g stroke="url(#ring)" stroke-width="3" stroke-linecap="round" opacity="0.7">
    <line x1="128" y1="28" x2="128" y2="44"/>
    <line x1="210" y1="128" x2="194" y2="128"/>
    <line x1="128" y1="212" x2="128" y2="228"/>
    <line x1="46" y1="128" x2="62" y2="128"/>
  </g>
</svg>
